# xmcd
#
# Track frame offsets: 
#        150
#        33314
#        57037
#        75542
#        94790
#        121056
#        140292
#        165512
#        188622
#        209782
#
# Disc length: 3039 seconds
#
# Revision: 0
# Processed by: cddbd v1.5.2PL0 Copyright (c) Steve Scherf et al.
# Submitted via: ExactAudioCopy v0.99pb5
#
DISCID=7a0bdd0a
DTITLE=The Juggernauts - The Juggernauts are coming
DYEAR=2016
DGENRE=EBM
TTITLE0=The Juggernauts Are Coming
TTITLE1=Damaged Illusions (V.2K16)
TTITLE2=Plastic World
TTITLE3=Drinking Blood
TTITLE4=Phoenix (V.2K16 Extended)
TTITLE5=Abyss
TTITLE6=Infcted (V.2K16)
TTITLE7=Religion (V.2K16)
TTITLE8=Purge
TTITLE9=Follow
EXTD=
EXTT0=
EXTT1=
EXTT2=
EXTT3=
EXTT4=
EXTT5=
EXTT6=
EXTT7=
EXTT8=
EXTT9=
PLAYORDER=
